<?xml version="1.0" standalone="no"?>
<!DOCTYPE svg PUBLIC "-//W3C//DTD SVG 20010904//EN"
 "http://www.w3.org/TR/2001/REC-SVG-20010904/DTD/svg10.dtd">
<svg version="1.0" xmlns="http://www.w3.org/2000/svg"
 width="700.000000pt" height="700.000000pt" viewBox="0 0 700.000000 700.000000"
 preserveAspectRatio="xMidYMid meet">
<metadata>
Created by potrace 1.11, written by Peter Selinger 2001-2013
</metadata>
<g transform="translate(0.000000,700.000000) scale(0.100000,-0.100000)"
fill="#000000" stroke="none">
<path d="M1348 5671 c-131 -42 -225 -132 -269 -256 -19 -55 -24 -106 -315
-3180 -43 -464 -64 -723 -60 -768 12 -162 129 -305 285 -351 49 -14 296 -16
2511 -16 2215 0 2462 2 2511 16 156 46 273 189 285 351 4 45 -17 304 -60 768
-272 2870 -297 3125 -312 3171 -35 111 -130 210 -244 257 l-55 22 -2110 2
c-2024 2 -2112 1 -2167 -16z m3954 -334 c92 -36 174 -131 197 -227 11 -45 161
-2401 164 -2576 1 -84 -1 -96 -31 -157 -39 -79 -102 -138 -178 -167 -54 -20
-69 -20 -1947 -20 -1354 0 -1903 3 -1932 11 -102 28 -190 119 -222 229 -16 54
-14 89 87 1360 88 1119 105 1313 123 1359 21 58 79 128 132 161 82 51 12 49
1850 47 1629 -2 1712 -3 1757 -20z"/>
<path d="M4370 3738 c0 -112 -5 -210 -10 -218 -8 -13 -81 -15 -540 -18 l-530
-3 0 111 c0 64 -4 110 -10 110 -16 0 -870 -430 -870 -438 0 -11 867 -442 874
-435 3 4 6 53 6 110 l0 103 675 0 c738 0 716 -2 778 58 16 15 39 45 50 67 21
39 22 53 25 398 l3 357 -225 0 -226 0 0 -202z"/>
</g>
</svg>
